<?xml version="1.0" standalone="no"?>
<!DOCTYPE svg PUBLIC "-//W3C//DTD SVG 20010904//EN"
 "http://www.w3.org/TR/2001/REC-SVG-20010904/DTD/svg10.dtd">
<svg version="1.0" xmlns="http://www.w3.org/2000/svg"
 width="1500.000000pt" height="1500.000000pt" viewBox="0 0 1500.000000 1500.000000"
 preserveAspectRatio="xMidYMid meet">
<metadata>
Created by potrace 1.14, written by Peter Selinger 2001-2017
</metadata>
<g transform="translate(0.000000,1500.000000) scale(0.100000,-0.100000)"
fill="#000000" stroke="none">
<path d="M7387 14926 c-65 -19 -107 -45 -647 -391 -138 -88 -591 -365 -610
-372 -8 -3 -22 -12 -30 -18 -26 -21 -110 -65 -110 -57 0 4 -4 2 -8 -4 -7 -11
-100 -73 -132 -88 -8 -4 -24 -12 -35 -19 -88 -54 -116 -68 -125 -62 -5 3 -10
2 -10 -4 0 -6 -7 -8 -15 -5 -14 6 -49 -19 -39 -28 2 -3 -1 -10 -8 -15 -15 -12
-481 -272 -633 -353 -55 -29 -149 -80 -210 -112 -222 -120 -835 -419 -1070
-523 -513 -227 -1078 -431 -1335 -481 -14 -3 -50 -11 -80 -19 -30 -7 -71 -16
-90 -18 -19 -3 -60 -10 -90 -16 -71 -13 -143 -20 -255 -26 -132 -7 -163 -13
-235 -47 -118 -57 -214 -182 -238 -310 -10 -51 -8 -4337 2 -4478 10 -152 18
-258 31 -400 5 -58 21 -189 40 -325 5 -33 26 -175 31 -201 30 -172 60 -323 94
-469 6 -27 13 -57 15 -65 20 -93 116 -428 169 -592 61 -183 154 -430 233 -613
54 -124 250 -530 283 -585 5 -8 39 -69 77 -135 86 -152 80 -141 132 -227 46
-76 272 -419 291 -441 6 -6 54 -70 107 -142 120 -162 361 -459 443 -546 8 -8
64 -68 123 -132 159 -171 452 -457 597 -583 25 -21 47 -42 50 -45 16 -19 345
-288 439 -359 62 -47 118 -90 124 -96 32 -29 314 -225 477 -333 102 -67 190
-125 195 -129 6 -4 36 -23 69 -42 32 -19 70 -42 85 -51 89 -56 300 -177 446
-256 166 -91 627 -314 800 -388 99 -42 194 -82 210 -90 53 -23 197 -76 330
-123 116 -41 140 -45 220 -46 98 -1 123 6 355 91 132 48 378 149 493 202 37
17 69 31 71 31 7 0 241 112 387 185 152 77 435 230 501 271 21 13 40 24 42 24
22 0 698 433 773 494 10 8 61 45 113 82 83 59 396 299 410 314 3 3 57 49 121
102 64 53 128 107 142 120 14 13 60 55 103 93 467 419 882 885 1236 1385 94
134 209 306 217 325 2 6 23 39 46 75 23 36 53 85 67 110 14 25 39 69 57 98 17
29 31 57 31 62 0 6 3 10 8 10 4 0 12 10 18 23 6 12 51 101 101 197 130 252
274 577 350 785 100 277 242 739 267 869 4 19 23 101 31 136 8 32 73 367 78
400 3 19 10 64 16 100 13 82 19 123 26 180 3 25 7 54 9 65 2 11 7 52 10 90 4
39 9 86 11 105 2 19 7 65 10 103 3 37 7 95 10 130 3 34 8 105 12 157 9 165 11
4440 1 4484 -25 112 -96 216 -191 277 -77 50 -140 67 -267 74 -172 8 -228 16
-400 50 -14 3 -38 8 -55 10 -58 11 -257 66 -296 83 -21 9 -39 20 -39 25 0 4
-4 6 -9 3 -5 -3 -11 0 -14 8 -3 8 -16 12 -31 11 -14 -2 -26 2 -26 8 0 5 -3 8
-6 4 -4 -3 -13 0 -21 8 -16 17 -33 20 -33 6 0 -13 -48 -5 -130 22 -105 35
-170 65 -170 76 0 6 -6 8 -14 5 -8 -3 -20 3 -27 15 -11 16 -16 18 -28 8 -12
-9 -13 -9 -7 1 9 16 -2 54 -15 47 -5 -4 -9 -1 -9 5 0 7 -7 10 -14 7 -10 -4
-13 -1 -9 9 4 10 0 12 -11 8 -9 -3 -16 -2 -16 3 0 5 -10 9 -22 10 -11 1 -25 8
-29 15 -7 10 -9 9 -9 -4 0 -10 -5 -18 -11 -18 -5 0 -7 6 -3 13 4 6 -4 2 -18
-11 -17 -15 -28 -20 -33 -13 -3 6 -10 9 -14 6 -8 -5 -89 26 -189 71 -29 13
-54 24 -57 24 -2 0 -39 16 -82 36 -97 45 -197 91 -243 111 -19 9 -192 94 -385
189 -336 166 -471 236 -710 366 -60 33 -137 75 -170 92 -101 55 -167 92 -235
131 -36 21 -85 49 -110 63 -496 280 -1195 706 -1657 1009 -81 53 -152 89 -196
100 -53 12 -175 12 -220 -1z"/>
</g>
</svg>
